<svg xmlns="http://www.w3.org/2000/svg" id="Livello_2" data-name="Livello 2" viewBox="0 0 2124.46 378.09"><defs><style>.cls-1{fill:#ff3067;stroke-width:0}</style></defs><g id="Livello_1-2" data-name="Livello 1"><path d="M1664.28 240.84c-16.94 0-31.29-2.96-43.04-8.88-11.75-5.92-20.73-14.39-26.92-25.41-6.2-11.02-9.66-24.27-10.39-39.76-.18-7.47-.27-15.48-.27-24.05s.09-16.76.27-24.59c.73-15.3 4.24-28.51 10.52-39.62 6.29-11.11 15.3-19.63 27.05-25.55 11.75-5.92 26-8.88 42.77-8.88 12.39 0 23.5 1.64 33.34 4.92 9.84 3.28 18.22 7.79 25.14 13.53 6.92 5.74 12.3 12.43 16.12 20.09 3.83 7.65 5.83 15.94 6.01 24.87.18 1.64-.32 3.01-1.5 4.1-1.19 1.09-2.6 1.64-4.24 1.64h-25.96c-2.01 0-3.65-.5-4.92-1.5-1.28-1-2.19-2.69-2.73-5.06-2.92-12.02-7.92-20.22-15.03-24.6-7.1-4.37-15.94-6.56-26.51-6.56-12.21 0-21.95 3.42-29.24 10.25-7.29 6.83-11.21 18.08-11.75 33.75-.55 14.94-.55 30.24 0 45.91.55 15.67 4.46 26.92 11.75 33.75 7.28 6.83 17.03 10.25 29.24 10.25 10.56 0 19.45-2.23 26.64-6.7 7.2-4.46 12.16-12.61 14.89-24.46.55-2.55 1.46-4.28 2.73-5.19 1.27-.91 2.91-1.37 4.92-1.37h25.96c1.64 0 3.05.55 4.24 1.64 1.18 1.09 1.68 2.46 1.5 4.1-.18 8.93-2.19 17.22-6.01 24.87-3.82 7.65-9.2 14.35-16.12 20.09-6.93 5.74-15.3 10.25-25.14 13.53s-20.95 4.92-33.34 4.92Zm175.71 0c-16.22 0-30.15-2.69-41.81-8.06-11.66-5.37-20.77-13.66-27.33-24.87s-10.11-25.18-10.66-41.95a1011.275 1011.275 0 0 1 0-46.73c.55-16.57 4.19-30.42 10.93-41.54 6.74-11.11 15.99-19.49 27.74-25.14 11.75-5.64 25.46-8.47 41.13-8.47s29.42 2.83 41.26 8.47c11.84 5.65 21.13 14.03 27.87 25.14 6.74 11.11 10.38 24.96 10.93 41.54.36 8.02.55 15.85.55 23.5s-.18 15.4-.55 23.23c-.55 16.76-4.1 30.74-10.66 41.95-6.56 11.2-15.71 19.5-27.46 24.87-11.75 5.37-25.73 8.06-41.95 8.06Zm0-31.43c11.84 0 21.49-3.51 28.97-10.52 7.47-7.01 11.48-18.45 12.02-34.3.36-8.01.55-15.44.55-22.27s-.18-14.16-.55-22c-.37-10.56-2.32-19.17-5.87-25.82-3.55-6.65-8.33-11.48-14.35-14.48-6.01-3.01-12.94-4.51-20.77-4.51s-14.48 1.5-20.49 4.51c-6.01 3.01-10.8 7.84-14.35 14.48-3.55 6.65-5.51 15.26-5.88 25.82-.18 7.84-.27 15.17-.27 22s.09 14.26.27 22.27c.55 15.85 4.55 27.28 12.02 34.3 7.47 7.01 17.03 10.52 28.69 10.52Zm112.31 28.7c-2.01 0-3.65-.64-4.92-1.91-1.28-1.27-1.91-2.82-1.91-4.65V53.65c0-2 .64-3.64 1.91-4.92s2.91-1.91 4.92-1.91h21.59c2.55 0 4.46.68 5.74 2.05 1.27 1.37 2.09 2.42 2.46 3.14l52.74 98.38 53.29-98.38c.36-.73 1.18-1.78 2.46-3.14 1.27-1.37 3.19-2.05 5.74-2.05h21.32c2 0 3.64.64 4.92 1.91 1.27 1.28 1.91 2.92 1.91 4.92v177.9c0 1.82-.64 3.37-1.91 4.65-1.28 1.28-2.92 1.91-4.92 1.91h-22.95c-2.01 0-3.6-.64-4.78-1.91-1.19-1.27-1.78-2.82-1.78-4.65V113.23l-38.26 72.96c-.91 1.64-2.1 3.05-3.55 4.24-1.46 1.19-3.37 1.78-5.74 1.78h-11.2c-2.55 0-4.51-.59-5.88-1.78-1.37-1.18-2.51-2.6-3.42-4.24l-38.26-72.96v118.32c0 1.82-.64 3.37-1.91 4.65s-2.83 1.91-4.65 1.91h-22.95Z" class="cls-1"/><ellipse cx="534.2" cy="191.1" class="cls-1" rx="50.81" ry="52.91"/><path d="M196.84 188.18c.48.99 1.03 1.98 1.59 3 32.31 58.65 64.56 117.32 96.86 175.97 2.2 4 3.76 9.03 9.38 9.05 23.02.07 46.03.03 71.68.03-1.62-2.95-3.22-5.87-4.84-8.81h.02a238.4 238.4 0 0 0-2.93-5.45c-40.24-73.37-80.46-146.75-120.8-220.06-3.51-6.38-7.03-12.77-10.55-19.15-1.9-3.47-3.79-6.91-5.7-10.39 0 0-.01.02-.02.03C211.32 75.79 190.82 38.83 169.34 0c-11.18 20.09-20.17 37.65-30.51 54.31-6.28 10.12-6.18 17.95-.27 28.55 19.53 35.04 38.92 70.17 58.27 105.33Zm462.34 111.01c-6.19-6.17-12.59-12.12-18.57-18.51-4.45-4.76-8.01-4.94-12.48.08-7.94 8.92-17.38 15.94-27.63 21.74-34.52 19.53-71.54 20.99-103.68 7.68-2.07-.86-4.13-1.78-6.16-2.76-3.05-1.47-6.04-3.08-8.98-4.82-3.92-2.32-7.73-4.88-11.43-7.66-3.7-2.79-7.28-5.8-10.73-9.04-4.31-4.05-8.42-8.45-12.28-13.18-.77-.95-1.54-1.91-2.29-2.88-10.55-13.62-19.19-29.83-25.22-48.34-4.3-26.57-1.76-52.71 4.52-78.63 1.25-3.9 1.93-8.14 3.83-11.66 34.82-64.74 118.05-87.41 178.3-49.34 10.53 6.65 18.62 23.4 29.81 20.28 11.17-3.11 18.86-18.12 29.29-26.2 12-9.31 8.28-15.5-.63-24.1C608.45-2.6 509.62-12.4 439.02 30.31c-29.3 17.72-51.26 43.14-68 74.27-3.23 6.11-5.77 11.98-8.09 17.96l-5.83-10.16c-5.2-8.2-10.1-16.59-14.83-25.07-1.09-1.95-2.17-3.91-3.25-5.87-2.15-3.92-4.28-7.85-6.4-11.79-1.06-1.97-2.12-3.94-3.17-5.91-3.17-5.91-6.34-11.83-9.56-17.71s-6.49-11.73-9.87-17.51c-5.06-8.66-9.81-17.52-15.88-28.4-11.32 20.37-20.51 38.4-31.14 55.46-6.16 9.89-5.11 17.34.34 27.06 37.61 67.06 74.69 134.44 111.87 201.76 54.64 98.93 198.36 125.15 282.3 51.47q20.46-17.96 1.68-36.66ZM180.33 376.2c23.02.07 46.03.03 71.68.03-48.75-88.83-96.08-175.08-144.79-263.86-12.7 23.07-23.48 43.17-34.79 62.94-.62 1.08-1.04 2.1-1.33 3.09-22.68 40.8-46 82.58-67.3 121.3-2.2 4-5.62 8.01-2.62 12.77 12.25 19.48 24.6 38.91 38.32 60.57 22.69-41.11 45.08-81.66 67.44-122.17 21.34 38.77 42.67 77.54 64.01 116.3 2.21 4 3.76 9.03 9.38 9.05Zm767.24-142.67c1.27-1.27 1.91-2.82 1.91-4.65V50.99c0-2-.64-3.64-1.91-4.92-1.28-1.27-2.92-1.91-4.92-1.91h-21.31c-2.55 0-4.47.68-5.74 2.05-1.28 1.37-2.1 2.42-2.46 3.14l-53.29 98.38-52.74-98.38c-.37-.73-1.19-1.78-2.46-3.14-1.28-1.37-3.19-2.05-5.74-2.05h-21.59c-2.01 0-3.65.64-4.92 1.91-1.28 1.28-1.91 2.92-1.91 4.92v177.9c0 1.82.64 3.37 1.91 4.65 1.27 1.28 2.91 1.91 4.92 1.91h22.95c1.82 0 3.37-.64 4.65-1.91 1.27-1.27 1.91-2.82 1.91-4.65V110.57l38.26 72.96c.91 1.64 2.05 3.05 3.42 4.23 1.37 1.19 3.32 1.78 5.88 1.78h11.2c2.36 0 4.28-.59 5.74-1.78 1.46-1.18 2.64-2.6 3.55-4.23l38.26-72.96v118.32c0 1.82.59 3.37 1.78 4.65 1.18 1.28 2.78 1.91 4.78 1.91h22.95c2 0 3.64-.64 4.92-1.91Zm165.33 1.91c2 0 3.64-.64 4.92-1.91 1.27-1.27 1.91-2.82 1.91-4.65v-18.03c0-2-.64-3.64-1.91-4.92-1.28-1.27-2.92-1.91-4.92-1.91h-92.09v-50.01h83.89c2 0 3.64-.59 4.92-1.78 1.27-1.18 1.91-2.78 1.91-4.78v-16.94c0-2-.64-3.6-1.91-4.78-1.28-1.18-2.92-1.78-4.92-1.78h-83.89V75.58h89.91c2 0 3.64-.64 4.92-1.91 1.27-1.27 1.91-2.82 1.91-4.65V50.99c0-2-.64-3.64-1.91-4.92-1.28-1.27-2.92-1.91-4.92-1.91H990.48c-1.82 0-3.37.64-4.65 1.91-1.28 1.28-1.91 2.92-1.91 4.92v177.9c0 1.82.64 3.37 1.91 4.65 1.27 1.28 2.82 1.91 4.65 1.91h122.42Zm188.55-95.64c0-6.19-.18-13.3-.55-21.31-.18-16.03-3.33-29.6-9.43-40.72-6.11-11.11-15.12-19.49-27.05-25.14-11.93-5.64-27.1-8.47-45.5-8.47h-66.68c-1.82 0-3.37.64-4.65 1.91-1.28 1.28-1.91 2.92-1.91 4.92v177.9c0 1.82.64 3.37 1.91 4.65 1.27 1.28 2.82 1.91 4.65 1.91h68.04c18.22 0 33.2-2.69 44.95-8.06 11.75-5.37 20.54-13.57 26.37-24.59 5.83-11.02 8.92-25.01 9.29-41.95.36-7.83.55-14.85.55-21.04Zm-38.39 5.87c-.09 4.1-.23 8.88-.41 14.35-.18 10.57-1.78 19.09-4.78 25.55-3 6.47-7.7 11.16-14.07 14.07-6.38 2.92-14.67 4.37-24.87 4.37h-35.25V75.58h33.89c15.48 0 26.78 3.55 33.88 10.66 7.11 7.11 10.84 18.13 11.2 33.07.18 5.28.32 9.97.41 14.07.09 4.1.09 8.2 0 12.3Zm103.56 87.86c1.18-1.27 1.78-2.82 1.78-4.65V50.71c0-1.82-.59-3.37-1.78-4.65-1.19-1.27-2.78-1.91-4.78-1.91h-25.69c-1.82 0-3.37.64-4.65 1.91-1.28 1.28-1.91 2.83-1.91 4.65v178.17c0 1.82.64 3.37 1.91 4.65 1.27 1.28 2.82 1.91 4.65 1.91h25.69c2 0 3.6-.64 4.78-1.91Zm200.44-3.83c0-.73-.09-1.55-.27-2.46l-65.86-176.26c-.73-1.82-1.82-3.42-3.28-4.78-1.46-1.37-3.55-2.05-6.28-2.05h-29.79c-2.73 0-4.88.68-6.42 2.05-1.55 1.37-2.6 2.96-3.14 4.78l-65.86 176.26c-.37.91-.55 1.73-.55 2.46 0 1.64.59 3.01 1.78 4.1 1.18 1.09 2.5 1.64 3.96 1.64h23.77c2.55 0 4.42-.59 5.6-1.78 1.18-1.18 1.96-2.32 2.32-3.42l12.84-33.34h81.16l12.84 33.34c.36 1.09 1.13 2.23 2.32 3.42 1.18 1.19 3.05 1.78 5.6 1.78h23.77c1.46 0 2.73-.55 3.83-1.64 1.09-1.09 1.64-2.46 1.64-4.1Zm-121.6-64.21 30.88-84.44 31.15 84.44h-62.03ZM778.59 308.42c2.64-2.54 6.21-3.82 10.71-3.82 3.95 0 7.23.81 9.82 2.44s4.36 4.65 5.3 9.04c.1.59.3 1 .59 1.22s.64.33 1.04.33h1.48c.45 0 .83-.14 1.15-.41.32-.27.46-.63.41-1.07-.1-1.78-.53-3.59-1.3-5.45-.77-1.85-1.93-3.58-3.48-5.19-1.56-1.6-3.57-2.9-6.04-3.89-2.47-.99-5.46-1.48-8.97-1.48-4.5 0-8.17.86-11.01 2.59s-4.96 4.11-6.34 7.15-2.15 6.48-2.3 10.34c-.05 2.13-.07 4.35-.07 6.67s.02 4.5.07 6.52c.15 3.86.91 7.29 2.3 10.3 1.38 3.02 3.5 5.4 6.34 7.15s6.51 2.63 11.01 2.63c3.51 0 6.5-.5 8.97-1.48 2.47-.99 4.48-2.28 6.04-3.89 1.56-1.6 2.72-3.33 3.48-5.19.76-1.85 1.2-3.67 1.3-5.45.05-.45-.09-.8-.41-1.08s-.7-.41-1.15-.41h-1.48c-.4 0-.74.11-1.04.33-.3.22-.49.63-.59 1.22-.94 4.4-2.71 7.41-5.3 9.04-2.59 1.63-5.87 2.45-9.82 2.45-4.5 0-8.07-1.27-10.71-3.82-2.64-2.54-4.07-6.61-4.26-12.19-.15-4.25-.15-8.4 0-12.45.2-5.58 1.62-9.65 4.26-12.19Zm69.52 13.34c-1.26-2.54-3.09-4.56-5.49-6.04-2.4-1.48-5.37-2.22-8.93-2.22s-6.54.74-8.93 2.22c-2.4 1.48-4.22 3.5-5.49 6.04-1.26 2.54-1.94 5.42-2.04 8.63-.05.74-.07 1.78-.07 3.11s.02 2.37.07 3.11c.1 3.16.78 6.03 2.04 8.6 1.26 2.57 3.09 4.6 5.49 6.08 2.4 1.48 5.37 2.22 8.93 2.22s6.53-.74 8.93-2.22c2.4-1.48 4.23-3.51 5.49-6.08 1.26-2.57 1.94-5.44 2.04-8.6.05-.74.07-1.78.07-3.11s-.03-2.37-.07-3.11c-.1-3.21-.78-6.09-2.04-8.63Zm-2.48 14.49c-.15 4.2-1.31 7.41-3.48 9.63-2.18 2.22-4.99 3.34-8.45 3.34s-6.28-1.11-8.45-3.34-3.33-5.43-3.48-9.63c-.05-.74-.07-1.65-.07-2.74s.02-2 .07-2.74c.15-4.25 1.31-7.47 3.48-9.67s4.99-3.3 8.45-3.3 6.27 1.1 8.45 3.3c2.17 2.2 3.34 5.42 3.48 9.67.05.74.07 1.66.07 2.74s-.02 2-.07 2.74Zm61.41-20.93c-2.1-1.21-4.46-1.82-7.08-1.82-2.87 0-5.4.63-7.6 1.89-2.2 1.26-3.87 2.95-5 5.08-2.37-4.65-6.33-6.97-11.86-6.97-2.42 0-4.48.43-6.19 1.3s-3.17 2.09-4.41 3.67v-2.59c0-.49-.15-.89-.44-1.19-.3-.3-.69-.44-1.19-.44h-1.26c-.49 0-.89.15-1.19.44-.3.3-.44.69-.44 1.19v35.28c0 .49.15.89.44 1.19.3.3.69.44 1.19.44h1.26c.49 0 .89-.15 1.19-.44.3-.3.44-.69.44-1.19v-20.9c0-3.21.51-5.72 1.52-7.52 1.01-1.8 2.29-3.08 3.82-3.82 1.53-.74 3.04-1.11 4.52-1.11 1.68 0 3.29.37 4.82 1.11 1.53.74 2.79 2.01 3.78 3.82.99 1.8 1.48 4.34 1.48 7.6v20.83c0 .49.15.89.45 1.19s.69.44 1.19.44h1.26c.49 0 .89-.15 1.19-.44s.45-.69.45-1.19v-20.83c0-3.26.51-5.79 1.52-7.6 1.01-1.8 2.28-3.08 3.82-3.82 1.53-.74 3.04-1.11 4.52-1.11 1.78 0 3.43.37 4.97 1.11 1.53.74 2.77 2.01 3.71 3.82.94 1.8 1.41 4.34 1.41 7.6v20.83c0 .49.15.89.44 1.19.3.3.69.44 1.19.44h1.26c.49 0 .89-.15 1.19-.44.3-.3.44-.69.44-1.19V329.6c0-3.56-.6-6.52-1.82-8.89s-2.87-4.16-4.97-5.37Zm65.07 0c-2.1-1.21-4.46-1.82-7.08-1.82-2.87 0-5.4.63-7.6 1.89-2.2 1.26-3.87 2.95-5 5.08-2.37-4.65-6.33-6.97-11.86-6.97-2.42 0-4.48.43-6.19 1.3s-3.17 2.09-4.41 3.67v-2.59c0-.49-.15-.89-.44-1.19-.3-.3-.69-.44-1.19-.44h-1.26c-.49 0-.89.15-1.19.44-.3.3-.44.69-.44 1.19v35.28c0 .49.15.89.44 1.19.3.3.69.44 1.19.44h1.26c.49 0 .89-.15 1.19-.44.3-.3.44-.69.44-1.19v-20.9c0-3.21.51-5.72 1.52-7.52 1.01-1.8 2.29-3.08 3.82-3.82 1.53-.74 3.04-1.11 4.52-1.11 1.68 0 3.29.37 4.82 1.11 1.53.74 2.79 2.01 3.78 3.82.99 1.8 1.48 4.34 1.48 7.6v20.83c0 .49.15.89.45 1.19s.69.44 1.19.44h1.26c.49 0 .89-.15 1.19-.44s.45-.69.45-1.19v-20.83c0-3.26.51-5.79 1.52-7.6 1.01-1.8 2.28-3.08 3.82-3.82 1.53-.74 3.04-1.11 4.52-1.11 1.78 0 3.43.37 4.97 1.11 1.53.74 2.77 2.01 3.71 3.82.94 1.8 1.41 4.34 1.41 7.6v20.83c0 .49.15.89.44 1.19.3.3.69.44 1.19.44h1.26c.49 0 .89-.15 1.19-.44.3-.3.44-.69.44-1.19V329.6c0-3.56-.6-6.52-1.82-8.89s-2.87-4.16-4.97-5.37Zm48.14-1.08h-1.26c-.49 0-.89.15-1.19.44-.3.3-.45.69-.45 1.19v20.68c0 3.95-1.06 7.05-3.19 9.3-2.13 2.25-4.94 3.37-8.45 3.37-7.36 0-11.04-4.22-11.04-12.67v-20.68c0-.49-.15-.89-.44-1.19-.3-.3-.69-.44-1.19-.44h-1.26c-.49 0-.89.15-1.19.44-.3.3-.44.69-.44 1.19v21.05c0 3.11.53 5.93 1.59 8.45 1.06 2.52 2.69 4.51 4.89 5.97s4.98 2.19 8.34 2.19 5.74-.55 7.6-1.63c1.85-1.09 3.45-2.49 4.78-4.22v3.48c0 .49.15.89.45 1.19.3.3.69.44 1.19.44h1.26c.49 0 .89-.15 1.19-.44s.45-.69.45-1.19v-35.28c0-.49-.15-.89-.45-1.19s-.69-.44-1.19-.44Zm39.02 1.45c-2.25-1.46-5.05-2.19-8.41-2.19-3.16 0-5.7.55-7.6 1.63-1.9 1.09-3.52 2.49-4.86 4.22v-3.48c0-.49-.15-.89-.44-1.19-.3-.3-.69-.44-1.19-.44h-1.26c-.49 0-.89.15-1.19.44-.3.3-.44.69-.44 1.19v35.28c0 .49.15.89.44 1.19.3.3.69.44 1.19.44h1.26c.49 0 .89-.15 1.19-.44.3-.3.44-.69.44-1.19v-20.68c0-3.95 1.08-7.05 3.22-9.3 2.15-2.25 4.98-3.37 8.49-3.37 3.71 0 6.52 1.13 8.45 3.37 1.93 2.25 2.89 5.35 2.89 9.3v20.68c0 .49.15.89.44 1.19.3.3.69.44 1.19.44h1.26c.49 0 .89-.15 1.19-.44.3-.3.45-.69.45-1.19V330.1c0-3.16-.56-5.99-1.67-8.49-1.11-2.49-2.79-4.47-5.04-5.93Zm21.24-1.45h-1.26c-.49 0-.89.15-1.19.44-.3.3-.44.69-.44 1.19v35.28c0 .49.15.89.44 1.19.3.3.69.44 1.19.44h1.26c.49 0 .89-.15 1.19-.44.3-.3.44-.69.44-1.19v-35.28c0-.49-.15-.89-.44-1.19-.3-.3-.69-.44-1.19-.44Zm.74-14.08h-2.82c-.49 0-.89.16-1.19.48s-.44.73-.44 1.22v2.82c0 .49.15.89.44 1.19s.69.45 1.19.45h2.82c.49 0 .9-.15 1.22-.45s.48-.69.48-1.19v-2.82c0-.49-.16-.9-.48-1.22s-.73-.48-1.22-.48Zm19.16 20.71c2.2-2.05 4.98-3.08 8.34-3.08 2.62 0 4.83.56 6.63 1.67 1.8 1.11 3.22 3.08 4.26 5.89.25.59.48 1 .7 1.22.22.22.58.33 1.08.33h1.04c.44 0 .84-.15 1.19-.45.34-.3.49-.69.44-1.19-.05-1.33-.4-2.69-1.04-4.08-.64-1.38-1.58-2.66-2.82-3.82-1.24-1.16-2.8-2.1-4.71-2.82-1.9-.72-4.16-1.08-6.78-1.08-3.46 0-6.4.68-8.82 2.04-2.42 1.36-4.26 3.31-5.52 5.86-1.26 2.55-1.94 5.6-2.04 9.15-.05.74-.07 1.73-.07 2.97s.02 2.22.07 2.97c.1 3.51.78 6.55 2.04 9.12 1.26 2.57 3.1 4.53 5.52 5.89 2.42 1.36 5.36 2.04 8.82 2.04 2.08 0 3.94-.24 5.6-.7s3.08-1.1 4.26-1.89 2.19-1.7 3-2.74c.81-1.04 1.42-2.1 1.82-3.19.4-1.09.62-2.17.67-3.26.05-.49-.1-.89-.44-1.19-.35-.3-.74-.45-1.19-.45h-1.04c-.5 0-.85.11-1.08.33-.22.22-.46.63-.7 1.22-1.04 2.82-2.46 4.78-4.26 5.89-1.8 1.11-4.01 1.67-6.63 1.67-3.36 0-6.14-1.03-8.34-3.08s-3.37-5.4-3.52-10.04c-.1-1.73-.1-3.46 0-5.19.15-4.64 1.32-7.99 3.52-10.04Zm58.55-3.11c-1.06-1.26-2.55-2.28-4.45-3.08-1.9-.79-4.31-1.19-7.23-1.19-2.47 0-4.57.35-6.3 1.04-1.73.69-3.14 1.55-4.22 2.56-1.09 1.01-1.89 2.04-2.41 3.08s-.78 1.9-.78 2.59c0 .44.12.83.37 1.15.25.32.67.48 1.26.48h1.19c.69 0 1.16-.37 1.41-1.11.59-1.63 1.68-2.95 3.26-3.97 1.58-1.01 3.66-1.52 6.23-1.52 3.51 0 6.06.75 7.67 2.26 1.6 1.51 2.41 3.57 2.41 6.19v2.59l-11.71 1.63c-4.35.59-7.88 1.9-10.6 3.93-2.72 2.03-4.08 4.72-4.08 8.08 0 2.08.62 3.94 1.85 5.6 1.23 1.65 2.85 2.98 4.85 3.96 2 .99 4.19 1.48 6.56 1.48 2.57 0 4.71-.31 6.41-.93s3.1-1.37 4.19-2.26c1.09-.89 1.93-1.78 2.52-2.67v3.48c0 .49.15.89.44 1.19.3.3.69.44 1.19.44h1.26c.49 0 .89-.15 1.19-.44.3-.3.44-.69.44-1.19v-24.68c0-1.48-.22-2.99-.67-4.52-.44-1.53-1.2-2.93-2.26-4.19Zm-1.59 17.68c0 3.11-.56 5.7-1.67 7.74-1.11 2.05-2.61 3.57-4.48 4.56s-3.95 1.48-6.23 1.48c-1.53 0-3.03-.26-4.48-.78-1.46-.52-2.66-1.3-3.59-2.33-.94-1.04-1.41-2.37-1.41-4 0-2.03 1.04-3.71 3.11-5.04s5.14-2.27 9.19-2.82l9.56-1.33v2.52Zm33.2 13.04h-4c-2.22 0-3.77-.74-4.63-2.22-.86-1.48-1.3-3.53-1.3-6.15v-21.57h9.19c.49 0 .89-.15 1.19-.45.3-.3.45-.69.45-1.19v-1.04c0-.49-.15-.89-.45-1.19s-.69-.44-1.19-.44h-9.19v-12.45c0-.49-.15-.89-.44-1.19s-.69-.44-1.19-.44h-1.26c-.49 0-.89.15-1.19.44s-.44.69-.44 1.19v12.45h-5.78c-.5 0-.89.15-1.19.44s-.45.69-.45 1.19v1.04c0 .5.15.89.45 1.19.3.3.69.45 1.19.45h5.78v21.87c0 2.32.3 4.42.89 6.3.59 1.88 1.63 3.36 3.11 4.45 1.48 1.09 3.51 1.63 6.08 1.63h4.37c.49 0 .89-.15 1.19-.44.3-.3.44-.69.44-1.19v-1.04c0-.49-.15-.89-.44-1.19-.3-.3-.69-.45-1.19-.45Zm12.16-34.24h-1.26c-.49 0-.89.15-1.19.44-.3.3-.44.69-.44 1.19v35.28c0 .49.15.89.44 1.19.3.3.69.44 1.19.44h1.26c.49 0 .89-.15 1.19-.44.3-.3.44-.69.44-1.19v-35.28c0-.49-.15-.89-.44-1.19-.3-.3-.69-.44-1.19-.44Zm.74-14.08h-2.82c-.49 0-.89.16-1.19.48s-.44.73-.44 1.22v2.82c0 .49.15.89.44 1.19s.69.45 1.19.45h2.82c.49 0 .9-.15 1.22-.45s.48-.69.48-1.19v-2.82c0-.49-.16-.9-.48-1.22s-.73-.48-1.22-.48Zm41.98 21.6c-1.26-2.54-3.09-4.56-5.49-6.04-2.4-1.48-5.37-2.22-8.93-2.22s-6.54.74-8.93 2.22c-2.4 1.48-4.22 3.5-5.49 6.04-1.26 2.54-1.94 5.42-2.04 8.63-.05.74-.07 1.78-.07 3.11s.02 2.37.07 3.11c.1 3.16.78 6.03 2.04 8.6 1.26 2.57 3.09 4.6 5.49 6.08 2.4 1.48 5.37 2.22 8.93 2.22s6.53-.74 8.93-2.22c2.4-1.48 4.23-3.51 5.49-6.08 1.26-2.57 1.94-5.44 2.04-8.6.05-.74.07-1.78.07-3.11s-.03-2.37-.07-3.11c-.1-3.21-.78-6.09-2.04-8.63Zm-2.48 14.49c-.15 4.2-1.31 7.41-3.48 9.63-2.18 2.22-4.99 3.34-8.45 3.34s-6.28-1.11-8.45-3.34-3.33-5.43-3.48-9.63c-.05-.74-.07-1.65-.07-2.74s.02-2 .07-2.74c.15-4.25 1.31-7.47 3.48-9.67s4.99-3.3 8.45-3.3 6.27 1.1 8.45 3.3c2.17 2.2 3.34 5.42 3.48 9.67.05.74.07 1.66.07 2.74s-.02 2-.07 2.74Zm40.14-20.56c-2.25-1.46-5.05-2.19-8.41-2.19-3.16 0-5.7.55-7.6 1.63-1.9 1.09-3.52 2.49-4.86 4.22v-3.48c0-.49-.15-.89-.44-1.19-.3-.3-.69-.44-1.19-.44h-1.26c-.49 0-.89.15-1.19.44-.3.3-.44.69-.44 1.19v35.28c0 .49.15.89.44 1.19.3.3.69.44 1.19.44h1.26c.49 0 .89-.15 1.19-.44.3-.3.44-.69.44-1.19v-20.68c0-3.95 1.08-7.05 3.22-9.3 2.15-2.25 4.98-3.37 8.49-3.37 3.71 0 6.52 1.13 8.45 3.37 1.93 2.25 2.89 5.35 2.89 9.3v20.68c0 .49.15.89.44 1.19.3.3.69.44 1.19.44h1.26c.49 0 .89-.15 1.19-.44.3-.3.45-.69.45-1.19V330.1c0-3.16-.56-5.99-1.67-8.49-1.11-2.49-2.79-4.47-5.04-5.93Zm23.31 30.2h-3.34c-.59 0-1.03.19-1.3.56-.27.37-.46.85-.56 1.45l-1.41 8.89c-.05.44.01.81.19 1.11s.46.44.85.44h1.26c.54 0 .95-.14 1.22-.41.27-.27.51-.66.7-1.15l3.19-8.38c.2-.45.3-.89.3-1.34 0-.3-.1-.57-.3-.81-.2-.25-.47-.37-.81-.37Zm74.85-44.99h-1.78c-.49 0-.85.12-1.08.37-.22.25-.38.45-.48.59l-16.9 32.76-16.82-32.76c-.05-.15-.2-.35-.44-.59-.25-.25-.62-.37-1.11-.37h-1.85c-.49 0-.9.15-1.22.45-.32.3-.48.72-.48 1.26v48.55c0 .49.16.89.48 1.19.32.3.73.44 1.22.44h1.33c.49 0 .89-.15 1.19-.44s.45-.69.45-1.19v-40.17l14.16 27.87c.25.49.54.86.89 1.11.35.25.82.37 1.41.37h1.63c.59 0 1.07-.12 1.44-.37.37-.25.65-.62.85-1.11l14.16-27.87v40.17c0 .49.15.89.45 1.19s.69.44 1.19.44h1.33c.54 0 .96-.15 1.26-.44s.45-.69.45-1.19v-48.55c0-.54-.15-.96-.45-1.26-.3-.3-.72-.45-1.26-.45Zm39.77 16.86c-1.06-1.26-2.55-2.28-4.45-3.08-1.9-.79-4.31-1.19-7.23-1.19-2.47 0-4.57.35-6.3 1.04-1.73.69-3.14 1.55-4.22 2.56-1.09 1.01-1.89 2.04-2.41 3.08s-.78 1.9-.78 2.59c0 .44.12.83.37 1.15.25.32.67.48 1.26.48h1.19c.69 0 1.16-.37 1.41-1.11.59-1.63 1.68-2.95 3.26-3.97 1.58-1.01 3.66-1.52 6.23-1.52 3.51 0 6.06.75 7.67 2.26 1.6 1.51 2.41 3.57 2.41 6.19v2.59l-11.71 1.63c-4.35.59-7.88 1.9-10.6 3.93-2.72 2.03-4.08 4.72-4.08 8.08 0 2.08.62 3.94 1.85 5.6 1.23 1.65 2.85 2.98 4.85 3.96 2 .99 4.19 1.48 6.56 1.48 2.57 0 4.71-.31 6.41-.93s3.1-1.37 4.19-2.26c1.09-.89 1.93-1.78 2.52-2.67v3.48c0 .49.15.89.44 1.19.3.3.69.44 1.19.44h1.26c.49 0 .89-.15 1.19-.44.3-.3.44-.69.44-1.19v-24.68c0-1.48-.22-2.99-.67-4.52-.44-1.53-1.2-2.93-2.26-4.19Zm-1.59 17.68c0 3.11-.56 5.7-1.67 7.74-1.11 2.05-2.61 3.57-4.48 4.56s-3.95 1.48-6.23 1.48c-1.53 0-3.03-.26-4.48-.78-1.46-.52-2.66-1.3-3.59-2.33-.94-1.04-1.41-2.37-1.41-4 0-2.03 1.04-3.71 3.11-5.04s5.14-2.27 9.19-2.82l9.56-1.33v2.52Zm33.57-21.2h-2.74c-2.47 0-4.55.42-6.23 1.26-1.68.84-2.97 2.12-3.86 3.85v-3.41c0-.49-.16-.9-.48-1.22-.32-.32-.73-.48-1.22-.48h-1.19c-.49 0-.89.16-1.19.48-.3.32-.44.73-.44 1.22v35.21c0 .49.15.89.44 1.19.3.3.69.44 1.19.44h1.19c.49 0 .9-.15 1.22-.44.32-.3.48-.69.48-1.19v-22.98c0-2.96.86-5.31 2.59-7.04s4.08-2.59 7.04-2.59h3.19c.49 0 .89-.15 1.19-.45.3-.3.44-.69.44-1.19v-1.04c0-.49-.15-.89-.44-1.19-.3-.3-.69-.44-1.19-.44Zm15.86 17.2 18.75-14.23c.4-.25.65-.51.78-.78.12-.27.19-.51.19-.7 0-.44-.14-.8-.41-1.07-.27-.27-.63-.41-1.08-.41h-1.41c-.74 0-1.27.07-1.59.22-.32.15-.83.49-1.52 1.04l-16.53 12.52v-26.24c0-.49-.15-.89-.45-1.19-.3-.3-.69-.44-1.19-.44h-1.26c-.5 0-.89.15-1.19.44-.3.3-.45.69-.45 1.19v49.36c0 .49.15.89.45 1.19s.69.44 1.19.44h1.26c.49 0 .89-.15 1.19-.44s.45-.69.45-1.19v-16.16l18.6 16.53c.69.59 1.2.95 1.52 1.08.32.12.85.19 1.59.19h1.19c.45 0 .8-.14 1.08-.41.27-.27.41-.63.41-1.07 0-.4-.32-.89-.96-1.48l-20.6-18.38Zm49.96-15.64c-2.42-1.53-5.36-2.3-8.82-2.3-3.21 0-5.99.72-8.34 2.15-2.35 1.43-4.19 3.43-5.52 6-1.33 2.57-2.13 5.53-2.37 8.89-.05.74-.07 1.73-.07 2.97s.02 2.22.07 2.97c.4 5.09 2 9.2 4.82 12.34 2.82 3.14 6.62 4.71 11.41 4.71 2.32 0 4.42-.32 6.3-.96 1.88-.64 3.47-1.46 4.78-2.44 1.31-.99 2.32-1.99 3.04-3 .72-1.01 1.1-1.86 1.15-2.56.05-.44-.09-.8-.41-1.07-.32-.27-.7-.41-1.15-.41h-1.19c-.54 0-.94.06-1.19.19s-.59.51-1.04 1.15c-.25.4-.79.98-1.63 1.74-.84.77-1.96 1.47-3.37 2.11s-3.18.96-5.3.96c-2.37 0-4.42-.63-6.15-1.89s-3.07-2.89-4-4.89c-.94-2-1.46-4.11-1.55-6.34v-.74h26.39c.49 0 .9-.15 1.22-.44.32-.3.48-.69.48-1.19v-1.11c0-3.95-.66-7.36-1.97-10.23-1.31-2.86-3.18-5.06-5.6-6.6Zm3.04 15.41h-23.57v-.3c0-2.47.45-4.69 1.37-6.67.91-1.98 2.25-3.54 4-4.71 1.75-1.16 3.87-1.74 6.34-1.74s4.6.58 6.37 1.74c1.78 1.16 3.14 2.73 4.08 4.71s1.41 4.2 1.41 6.67v.3Zm31.35 17.27h-4c-2.22 0-3.77-.74-4.63-2.22-.86-1.48-1.3-3.53-1.3-6.15v-21.57h9.19c.49 0 .89-.15 1.19-.45.3-.3.45-.69.45-1.19v-1.04c0-.49-.15-.89-.45-1.19s-.69-.44-1.19-.44h-9.19v-12.45c0-.49-.15-.89-.44-1.19s-.69-.44-1.19-.44h-1.26c-.49 0-.89.15-1.19.44s-.44.69-.44 1.19v12.45H1533c-.5 0-.89.15-1.19.44s-.45.69-.45 1.19v1.04c0 .5.15.89.45 1.19.3.3.69.45 1.19.45h5.78v21.87c0 2.32.3 4.42.89 6.3.59 1.88 1.63 3.36 3.11 4.45 1.48 1.09 3.51 1.63 6.08 1.63h4.37c.49 0 .89-.15 1.19-.44.3-.3.44-.69.44-1.19v-1.04c0-.49-.15-.89-.44-1.19-.3-.3-.69-.45-1.19-.45Zm12.15-34.24h-1.26c-.49 0-.89.15-1.19.44-.3.3-.44.69-.44 1.19v35.28c0 .49.15.89.44 1.19.3.3.69.44 1.19.44h1.26c.49 0 .89-.15 1.19-.44.3-.3.44-.69.44-1.19v-35.28c0-.49-.15-.89-.44-1.19-.3-.3-.69-.44-1.19-.44Zm.74-14.08h-2.82c-.49 0-.89.16-1.19.48s-.44.73-.44 1.22v2.82c0 .49.15.89.44 1.19s.69.45 1.19.45h2.82c.49 0 .9-.15 1.22-.45s.48-.69.48-1.19v-2.82c0-.49-.16-.9-.48-1.22s-.73-.48-1.22-.48Zm38.28 15.53c-2.25-1.46-5.05-2.19-8.41-2.19-3.16 0-5.7.55-7.6 1.63-1.9 1.09-3.52 2.49-4.86 4.22v-3.48c0-.49-.15-.89-.44-1.19-.3-.3-.69-.44-1.19-.44h-1.26c-.49 0-.89.15-1.19.44-.3.3-.44.69-.44 1.19v35.28c0 .49.15.89.44 1.19.3.3.69.44 1.19.44h1.26c.49 0 .89-.15 1.19-.44.3-.3.44-.69.44-1.19v-20.68c0-3.95 1.08-7.05 3.22-9.3 2.15-2.25 4.98-3.37 8.49-3.37 3.71 0 6.52 1.13 8.45 3.37 1.93 2.25 2.89 5.35 2.89 9.3v20.68c0 .49.15.89.44 1.19.3.3.69.44 1.19.44h1.26c.49 0 .89-.15 1.19-.44.3-.3.45-.69.45-1.19V330.1c0-3.16-.56-5.99-1.67-8.49-1.11-2.49-2.79-4.47-5.04-5.93Zm47.62-1.45h-1.19c-.49 0-.89.16-1.19.48-.3.32-.44.73-.44 1.22v3.41c-1.24-1.63-2.85-3.01-4.86-4.15-2-1.14-4.53-1.7-7.6-1.7-2.87 0-5.3.52-7.3 1.56s-3.62 2.42-4.85 4.15c-1.24 1.73-2.15 3.66-2.74 5.78a26.28 26.28 0 0 0-.96 6.45c-.05 1.38-.05 2.77 0 4.15.05 2.18.37 4.32.96 6.45s1.51 4.05 2.74 5.78c1.23 1.73 2.85 3.11 4.85 4.15 2 1.04 4.43 1.56 7.3 1.56 3.06 0 5.6-.56 7.6-1.67 2-1.11 3.62-2.51 4.86-4.19v5.11c0 3.11-.48 5.55-1.45 7.3-.96 1.75-2.36 2.98-4.19 3.67-1.83.69-4.1 1.04-6.82 1.04-2.57 0-4.58-.4-6.04-1.19-1.46-.79-2.52-1.72-3.19-2.78-.67-1.06-1.15-1.99-1.45-2.78-.2-.69-.44-1.12-.74-1.3-.3-.17-.64-.26-1.04-.26h-1.04c-.45 0-.84.16-1.19.48-.35.32-.5.73-.45 1.22.05.74.3 1.72.74 2.93s1.22 2.42 2.33 3.63 2.67 2.23 4.67 3.08c2 .84 4.58 1.26 7.74 1.26 4.4 0 7.79-.77 10.19-2.3 2.39-1.53 4.06-3.58 5-6.15.94-2.57 1.41-5.44 1.41-8.6v-36.09c0-.49-.16-.9-.48-1.22-.32-.32-.73-.48-1.22-.48Zm-2.81 21.94c-.1 2.03-.56 4.04-1.37 6.04-.82 2-2.09 3.67-3.82 5s-4 2-6.82 2-5.15-.64-6.86-1.93c-1.7-1.28-2.93-2.96-3.67-5.04-.74-2.08-1.16-4.3-1.26-6.67-.05-1.38-.05-2.77 0-4.15.1-2.37.52-4.6 1.26-6.67.74-2.07 1.96-3.75 3.67-5.04 1.7-1.28 3.99-1.93 6.86-1.93s5.09.67 6.82 2c1.73 1.34 3 3 3.82 5 .81 2 1.27 4.02 1.37 6.04.05.74.07 1.63.07 2.67s-.02 1.93-.07 2.67Zm69.74 6.89c.99-1.43 1.8-2.84 2.45-4.22.64-1.38 1.17-2.75 1.59-4.11.42-1.36.73-2.66.93-3.89.2-1.24.32-2.42.37-3.56 0-.49-.15-.89-.44-1.19s-.69-.45-1.19-.45h-1.41c-.99 0-1.53.54-1.63 1.63-.3 2.57-.8 4.87-1.52 6.89-.72 2.03-1.57 3.88-2.56 5.56l-14.16-13.86c1.98-1.14 3.86-2.33 5.63-3.59 1.78-1.26 3.22-2.72 4.34-4.37 1.11-1.66 1.67-3.62 1.67-5.89s-.56-4.3-1.67-6.08c-1.11-1.78-2.63-3.19-4.56-4.22-1.93-1.04-4.15-1.56-6.67-1.56s-4.68.54-6.63 1.63c-1.95 1.09-3.48 2.52-4.6 4.3-1.11 1.78-1.67 3.76-1.67 5.93s.52 4.21 1.56 6.11c1.04 1.9 2.82 4.19 5.34 6.86a46.39 46.39 0 0 0-5.19 3.59c-1.63 1.31-2.95 2.82-3.96 4.52-1.01 1.7-1.52 3.72-1.52 6.04 0 2.77.69 5.24 2.08 7.41 1.38 2.17 3.31 3.88 5.78 5.11 2.47 1.23 5.29 1.85 8.45 1.85 3.66 0 6.84-.67 9.56-2 2.72-1.33 5.01-2.99 6.89-4.96l5.49 5.48c.25.2.53.37.85.52s.73.22 1.22.22h1.63c.49 0 .86-.12 1.11-.37s.37-.59.37-1.04c0-.34-.22-.74-.67-1.19l-7.26-7.11Zm-26.53-28.13c-.35-.96-.52-1.94-.52-2.93 0-2.32.83-4.14 2.48-5.45 1.65-1.31 3.57-1.96 5.75-1.96 2.32 0 4.27.67 5.85 2s2.37 3.14 2.37 5.41c0 1.58-.47 2.99-1.41 4.22-.94 1.24-2.19 2.36-3.74 3.37a86.931 86.931 0 0 1-5 3c-1.68-1.78-2.98-3.26-3.89-4.45-.91-1.19-1.55-2.26-1.89-3.22Zm14.08 32.69c-2.27.96-4.52 1.45-6.74 1.45-2.03 0-3.93-.38-5.71-1.15-1.78-.76-3.21-1.89-4.3-3.37-1.09-1.48-1.63-3.28-1.63-5.41 0-2.57.9-4.69 2.71-6.37 1.8-1.68 3.94-3.21 6.41-4.6l15.56 15.05c-1.93 1.98-4.03 3.45-6.3 4.41Zm67-45.25c-.2-.49-.46-.86-.78-1.11-.32-.25-.78-.37-1.37-.37h-2.52c-.59 0-1.05.12-1.37.37-.32.25-.58.62-.78 1.11l-18.75 48.1c-.1.3-.15.57-.15.82 0 .4.15.74.44 1.04.3.3.64.44 1.04.44h1.48c.49 0 .88-.14 1.15-.41.27-.27.43-.5.48-.7l4.6-11.86h26.24l4.6 11.86c.1.2.27.43.52.7.25.27.62.41 1.11.41h1.48c.39 0 .74-.15 1.04-.44s.45-.64.45-1.04c0-.25-.05-.52-.15-.82l-18.75-48.1Zm-14.75 32.98 11.34-29.2 11.34 29.2h-22.68Zm70.27-35.2h-1.26c-.49 0-.89.15-1.19.44-.3.3-.44.69-.44 1.19v17.57c-1.24-1.63-2.85-3.01-4.86-4.15-2-1.14-4.53-1.7-7.6-1.7-2.87 0-5.3.52-7.3 1.56s-3.62 2.42-4.86 4.15-2.14 3.66-2.71 5.78c-.57 2.13-.9 4.27-1 6.45a30.73 30.73 0 0 0 0 4.16c.1 2.18.43 4.32 1 6.45.57 2.13 1.47 4.05 2.71 5.78s2.85 3.11 4.86 4.15 4.43 1.56 7.3 1.56c3.06 0 5.6-.56 7.6-1.67 2-1.11 3.62-2.51 4.86-4.19v3.48c0 .49.15.89.44 1.19.3.3.69.44 1.19.44h1.26c.49 0 .89-.15 1.19-.44.3-.3.44-.69.44-1.19v-49.36c0-.49-.15-.89-.44-1.19s-.69-.44-1.19-.44Zm-2.9 36.02c-.05 2.03-.49 4.04-1.33 6.04-.84 2-2.13 3.67-3.86 5s-4 2-6.82 2-5.15-.64-6.85-1.93c-1.7-1.28-2.93-2.96-3.67-5.04-.74-2.08-1.16-4.3-1.26-6.67-.05-1.38-.05-2.77 0-4.15.1-2.37.52-4.6 1.26-6.67.74-2.07 1.97-3.75 3.67-5.04 1.7-1.28 3.99-1.93 6.85-1.93s5.02.64 6.75 1.93c1.73 1.29 3.03 2.89 3.89 4.82.86 1.93 1.32 3.88 1.37 5.85.05.74.07 1.7.07 2.89s-.03 2.15-.07 2.89Zm46.18-21.94h-1.56c-.49 0-.86.14-1.11.41-.25.27-.42.51-.52.7l-12.53 32.02-12.52-32.02c-.05-.2-.21-.43-.48-.7-.27-.27-.66-.41-1.15-.41h-1.56c-.4 0-.74.15-1.04.44s-.45.64-.45 1.04c0 .25.05.52.15.82l13.64 34.39c.25.54.58.99 1 1.33.42.35 1.02.52 1.82.52h1.19c.79 0 1.41-.17 1.85-.52.45-.34.76-.79.96-1.33l13.64-34.39c.1-.3.15-.57.15-.82 0-.39-.15-.74-.45-1.04-.3-.3-.64-.44-1.04-.44Zm31.95 1.56c-2.42-1.53-5.36-2.3-8.82-2.3-3.21 0-5.99.72-8.34 2.15-2.35 1.43-4.19 3.43-5.52 6s-2.13 5.53-2.37 8.89c-.05.74-.07 1.73-.07 2.97s.02 2.22.07 2.97c.4 5.09 2 9.2 4.82 12.34 2.82 3.14 6.62 4.71 11.41 4.71 2.32 0 4.42-.32 6.3-.96 1.88-.64 3.47-1.46 4.78-2.44 1.31-.99 2.32-1.99 3.04-3 .72-1.01 1.1-1.86 1.15-2.56.05-.44-.09-.8-.41-1.07-.32-.27-.7-.41-1.15-.41h-1.19c-.54 0-.94.06-1.19.19s-.59.51-1.04 1.15c-.25.4-.79.98-1.63 1.74-.84.77-1.96 1.47-3.37 2.11s-3.18.96-5.3.96c-2.37 0-4.42-.63-6.15-1.89s-3.07-2.89-4-4.89c-.94-2-1.46-4.11-1.55-6.34v-.74h26.39c.49 0 .9-.15 1.22-.44.32-.3.48-.69.48-1.19v-1.11c0-3.95-.66-7.36-1.97-10.23-1.31-2.86-3.18-5.06-5.6-6.6Zm3.03 15.41h-23.57v-.3c0-2.47.45-4.69 1.37-6.67.91-1.98 2.25-3.54 4-4.71 1.75-1.16 3.87-1.74 6.34-1.74s4.6.58 6.37 1.74c1.78 1.16 3.14 2.73 4.08 4.71s1.41 4.2 1.41 6.67v.3Zm31.65-16.97h-2.74c-2.47 0-4.55.42-6.23 1.26-1.68.84-2.97 2.12-3.86 3.85v-3.41c0-.49-.16-.9-.48-1.22-.32-.32-.73-.48-1.22-.48h-1.19c-.49 0-.89.16-1.19.48-.3.32-.44.73-.44 1.22v35.21c0 .49.15.89.44 1.19.3.3.69.44 1.19.44h1.19c.49 0 .9-.15 1.22-.44.32-.3.48-.69.48-1.19v-22.98c0-2.96.86-5.31 2.59-7.04 1.73-1.73 4.08-2.59 7.04-2.59h3.19c.49 0 .89-.15 1.19-.45.3-.3.44-.69.44-1.19v-1.04c0-.49-.15-.89-.44-1.19-.3-.3-.69-.44-1.19-.44Zm25.79 34.24h-4c-2.22 0-3.77-.74-4.63-2.22-.86-1.48-1.3-3.53-1.3-6.15v-21.57h9.19c.49 0 .89-.15 1.19-.45.3-.3.45-.69.45-1.19v-1.04c0-.49-.15-.89-.45-1.19s-.69-.44-1.19-.44h-9.19v-12.45c0-.49-.15-.89-.44-1.19s-.69-.44-1.19-.44h-1.26c-.49 0-.89.15-1.19.44s-.44.69-.44 1.19v12.45h-5.78c-.5 0-.89.15-1.19.44s-.45.69-.45 1.19v1.04c0 .5.15.89.45 1.19.3.3.69.45 1.19.45h5.78v21.87c0 2.32.3 4.42.89 6.3.59 1.88 1.63 3.36 3.11 4.45 1.48 1.09 3.51 1.63 6.08 1.63h4.37c.49 0 .89-.15 1.19-.44.3-.3.44-.69.44-1.19v-1.04c0-.49-.15-.89-.44-1.19-.3-.3-.69-.45-1.19-.45Zm12.9-48.32h-2.82c-.49 0-.89.16-1.19.48s-.44.73-.44 1.22v2.82c0 .49.15.89.44 1.19s.69.45 1.19.45h2.82c.49 0 .9-.15 1.22-.45s.48-.69.48-1.19v-2.82c0-.49-.16-.9-.48-1.22s-.73-.48-1.22-.48Zm-.74 14.08h-1.26c-.49 0-.89.15-1.19.44-.3.3-.44.69-.44 1.19v35.28c0 .49.15.89.44 1.19.3.3.69.44 1.19.44h1.26c.49 0 .89-.15 1.19-.44.3-.3.44-.69.44-1.19v-35.28c0-.49-.15-.89-.44-1.19-.3-.3-.69-.44-1.19-.44Zm35.58 19.75c-1.83-1.01-4.32-1.86-7.49-2.56-3.11-.74-5.49-1.44-7.11-2.11-1.63-.67-2.74-1.41-3.34-2.22-.59-.82-.89-1.77-.89-2.85 0-1.88.72-3.42 2.15-4.63s3.63-1.82 6.6-1.82c1.98 0 3.54.21 4.71.63 1.16.42 2.09.98 2.78 1.67s1.29 1.43 1.78 2.22c.2.3.42.53.67.7.25.17.57.26.96.26h1.11c.44 0 .84-.15 1.19-.44.34-.3.49-.69.44-1.19-.05-.54-.33-1.26-.85-2.15s-1.32-1.79-2.41-2.71c-1.09-.91-2.48-1.69-4.19-2.33s-3.77-.96-6.19-.96c-2.96 0-5.42.53-7.38 1.59-1.95 1.06-3.42 2.42-4.41 4.08-.99 1.66-1.48 3.35-1.48 5.08 0 1.58.3 3.05.89 4.41.59 1.36 1.72 2.56 3.37 3.59 1.65 1.04 4.04 1.93 7.15 2.67 3.11.69 5.58 1.36 7.41 2 1.83.64 3.12 1.38 3.89 2.22.76.84 1.15 1.95 1.15 3.33 0 2.22-.96 3.91-2.89 5.04-1.93 1.14-4.37 1.7-7.34 1.7-1.98 0-3.62-.22-4.93-.67-1.31-.45-2.38-1.05-3.22-1.82a17.81 17.81 0 0 1-2.22-2.41c-.35-.45-.63-.72-.85-.82-.22-.1-.48-.15-.78-.15h-1.11c-.35 0-.72.14-1.11.41-.4.27-.57.68-.52 1.22.05.49.36 1.21.93 2.15.57.94 1.45 1.89 2.63 2.85 1.19.96 2.71 1.79 4.56 2.48 1.85.69 4.06 1.04 6.63 1.04 3.21 0 5.92-.51 8.12-1.52 2.2-1.01 3.86-2.36 4.97-4.04 1.11-1.68 1.67-3.51 1.67-5.49 0-1.88-.38-3.51-1.15-4.89-.77-1.38-2.06-2.58-3.89-3.59Zm18.15-33.83h-2.82c-.49 0-.89.16-1.19.48s-.44.73-.44 1.22v2.82c0 .49.15.89.44 1.19s.69.45 1.19.45h2.82c.49 0 .9-.15 1.22-.45s.48-.69.48-1.19v-2.82c0-.49-.16-.9-.48-1.22s-.73-.48-1.22-.48Zm-.74 14.08h-1.26c-.49 0-.89.15-1.19.44-.3.3-.44.69-.44 1.19v35.28c0 .49.15.89.44 1.19.3.3.69.44 1.19.44h1.26c.49 0 .89-.15 1.19-.44.3-.3.44-.69.44-1.19v-35.28c0-.49-.15-.89-.44-1.19-.3-.3-.69-.44-1.19-.44Zm39.02 1.45c-2.25-1.46-5.05-2.19-8.41-2.19-3.16 0-5.7.55-7.6 1.63-1.9 1.09-3.52 2.49-4.86 4.22v-3.48c0-.49-.15-.89-.44-1.19-.3-.3-.69-.44-1.19-.44h-1.26c-.49 0-.89.15-1.19.44-.3.3-.44.69-.44 1.19v35.28c0 .49.15.89.44 1.19.3.3.69.44 1.19.44h1.26c.49 0 .89-.15 1.19-.44.3-.3.44-.69.44-1.19v-20.68c0-3.95 1.08-7.05 3.22-9.3 2.15-2.25 4.98-3.37 8.49-3.37 3.71 0 6.52 1.13 8.45 3.37 1.93 2.25 2.89 5.35 2.89 9.3v20.68c0 .49.15.89.44 1.19.3.3.69.44 1.19.44h1.26c.49 0 .89-.15 1.19-.44.3-.3.45-.69.45-1.19V330.1c0-3.16-.56-5.99-1.67-8.49-1.11-2.49-2.79-4.47-5.04-5.93Zm47.62-1.45h-1.19c-.49 0-.89.16-1.19.48-.3.32-.44.73-.44 1.22v3.41c-1.24-1.63-2.85-3.01-4.86-4.15-2-1.14-4.53-1.7-7.6-1.7-2.87 0-5.3.52-7.3 1.56s-3.62 2.42-4.85 4.15c-1.24 1.73-2.15 3.66-2.74 5.78a26.28 26.28 0 0 0-.96 6.45c-.05 1.38-.05 2.77 0 4.15.05 2.18.37 4.32.96 6.45s1.51 4.05 2.74 5.78c1.23 1.73 2.85 3.11 4.85 4.15 2 1.04 4.43 1.56 7.3 1.56 3.06 0 5.6-.56 7.6-1.67 2-1.11 3.62-2.51 4.86-4.19v5.11c0 3.11-.48 5.55-1.45 7.3-.96 1.75-2.36 2.98-4.19 3.67-1.83.69-4.1 1.04-6.82 1.04-2.57 0-4.58-.4-6.04-1.19-1.46-.79-2.52-1.72-3.19-2.78-.67-1.06-1.15-1.99-1.45-2.78-.2-.69-.44-1.12-.74-1.3-.3-.17-.64-.26-1.04-.26h-1.04c-.45 0-.84.16-1.19.48-.35.32-.5.73-.45 1.22.05.74.3 1.72.74 2.93s1.22 2.42 2.33 3.63 2.67 2.23 4.67 3.08c2 .84 4.58 1.26 7.74 1.26 4.4 0 7.79-.77 10.19-2.3 2.39-1.53 4.06-3.58 5-6.15.94-2.57 1.41-5.44 1.41-8.6v-36.09c0-.49-.16-.9-.48-1.22-.32-.32-.73-.48-1.22-.48Zm-2.81 21.94c-.1 2.03-.56 4.04-1.37 6.04-.82 2-2.09 3.67-3.82 5s-4 2-6.82 2-5.15-.64-6.86-1.93c-1.7-1.28-2.93-2.96-3.67-5.04-.74-2.08-1.16-4.3-1.26-6.67-.05-1.38-.05-2.77 0-4.15.1-2.37.52-4.6 1.26-6.67.74-2.07 1.96-3.75 3.67-5.04 1.7-1.28 3.99-1.93 6.86-1.93s5.09.67 6.82 2c1.73 1.34 3 3 3.82 5 .81 2 1.27 4.02 1.37 6.04.05.74.07 1.63.07 2.67s-.02 1.93-.07 2.67Z" style="fill:#fff;stroke-width:0"/></g></svg>